<svg xmlns="http://www.w3.org/2000/svg" width="23" height="21" viewBox="0 0 23 21" fill="none">
<path d="M12.0372 18.6058C11.8349 18.4269 11.6238 18.2474 11.4221 18.0485C11.2609 18.1975 11.1098 18.3371 10.9499 18.4761C8.95409 20.1966 6.89685 20.9129 5.67735 20.2166C4.49765 19.5502 4.12599 17.5816 4.59815 15.1049C4.64851 14.8365 4.70899 14.568 4.77959 14.2995C4.56779 14.2372 4.36612 14.1798 4.16444 14.1125C1.65327 13.2554 6.10352e-05 11.8634 6.10352e-05 10.4708C6.10352e-05 9.12863 1.54265 7.82577 3.95197 6.99045C4.22177 6.90068 4.50641 6.81154 4.79915 6.73175C4.7317 6.47305 4.67841 6.22432 4.62783 5.9837C4.1233 3.46963 4.47606 1.46111 5.66588 0.784753C6.90562 0.0684954 8.96285 0.834623 11.0289 2.63431C11.1496 2.7434 11.271 2.86308 11.4019 2.98215C11.5934 2.80324 11.7749 2.62433 11.9664 2.46537C13.9225 0.78226 15.8677 0.0784694 17.0576 0.754831C18.2973 1.45052 18.6609 3.59867 18.1064 6.25424C18.0761 6.4238 18.039 6.58276 17.9958 6.75294C18.2481 6.82276 18.4997 6.90193 18.7317 6.98172C21.1916 7.81704 22.7848 9.1199 22.7645 10.4919C22.7645 11.8939 21.0607 13.2766 18.4477 14.1318C18.3067 14.1717 18.1658 14.2216 18.0241 14.2609C18.0848 14.4597 18.1246 14.6586 18.1651 14.8574C18.6892 17.4332 18.2858 19.5415 17.0663 20.2378C16.7461 20.416 16.3777 20.5068 16.004 20.4996C14.8863 20.4977 13.4672 19.8176 12.0372 18.6058ZM14.0135 14.9559C13.4344 15.7885 12.7979 16.5858 12.1081 17.3428C12.2996 17.5299 12.4912 17.7013 12.6827 17.8602C14.3461 19.2722 15.8785 19.7996 16.5949 19.3919C16.8136 19.2177 16.9923 19.0048 17.1205 18.7657C17.2486 18.5266 17.3236 18.2662 17.3409 17.9999C17.4864 17.013 17.4453 16.0102 17.2194 15.0364C17.1891 14.8574 17.152 14.6785 17.0987 14.4897C16.0829 14.7094 15.0521 14.8652 14.0135 14.9559ZM5.56471 15.2745C5.15191 17.394 5.45409 18.9736 6.17176 19.3819C6.42602 19.4801 6.70054 19.5254 6.97586 19.5147C7.25118 19.5039 7.52057 19.4373 7.76494 19.3196C8.7156 18.9503 9.58138 18.4169 10.3159 17.748C10.467 17.6283 10.608 17.4893 10.7597 17.3503C10.0547 16.593 9.40138 15.7959 8.80367 14.9634C7.76901 14.8835 6.74154 14.7377 5.72861 14.5271C5.66588 14.787 5.6153 15.0351 5.56471 15.2745ZM11.4329 16.6665C11.8767 16.179 12.3199 15.6423 12.7637 15.0457C12.3199 15.0656 11.8565 15.0756 11.3924 15.0756C10.9284 15.0756 10.4953 15.0656 10.0616 15.0457C10.5149 15.6317 10.9688 16.179 11.4322 16.6665H11.4329ZM9.31494 6.96053C8.93183 7.50723 8.55883 8.0826 8.20606 8.69102C7.8533 9.28759 7.53156 9.89413 7.23815 10.4988C7.541 11.0954 7.86341 11.7019 8.21618 12.3191C8.56894 12.9156 8.94194 13.5035 9.32506 14.0589C9.99012 14.0988 10.6862 14.1212 11.3917 14.1212C12.0973 14.1212 12.8028 14.1013 13.4787 14.052C13.8415 13.5053 14.2145 12.9181 14.568 12.3116C14.9214 11.705 15.2533 11.0885 15.546 10.4919C15.2533 9.90535 14.9207 9.29881 14.568 8.69164C14.2152 8.08447 13.8422 7.50723 13.4692 6.96115C12.7947 6.91128 12.0979 6.88136 11.3924 6.88136C10.6869 6.88136 9.9908 6.91066 9.31494 6.96053ZM5.9883 13.6132C6.68003 13.7592 7.38016 13.8689 8.08533 13.9417C7.84318 13.5639 7.60171 13.1856 7.36968 12.7878C7.14777 12.4001 6.92586 12.0124 6.72418 11.6246C6.43212 12.3004 6.18997 12.968 5.9883 13.6132ZM15.4145 12.7779C15.1824 13.1756 14.9504 13.5533 14.7191 13.9218C15.4348 13.8389 16.145 13.7194 16.8464 13.5639C16.6274 12.8926 16.3717 12.2321 16.0802 11.5847C15.8684 11.9824 15.6465 12.3802 15.4145 12.7779ZM4.26427 7.90494C2.20771 8.6212 0.967973 9.66411 0.967973 10.4807C1.00718 10.7434 1.10214 10.9964 1.24741 11.2251C1.39267 11.4538 1.58538 11.6538 1.81447 11.8135C2.60133 12.425 3.50367 12.897 4.47606 13.2055C4.6575 13.2678 4.84906 13.3152 5.04062 13.3751C5.35031 12.3969 5.72399 11.437 6.15962 10.5007C5.72316 9.5804 5.35273 8.63456 5.05074 7.66931C4.77869 7.73663 4.51653 7.81518 4.26427 7.90494ZM16.6346 10.4807C17.082 11.4051 17.465 12.355 17.7813 13.3246C17.9128 13.2847 18.0437 13.2448 18.1644 13.2049C20.4125 12.4693 21.8067 11.3453 21.8142 10.4701C21.8142 9.65475 20.5238 8.6 18.4167 7.88437C18.2049 7.81518 17.9735 7.74536 17.7422 7.67554C17.4367 8.63106 17.0668 9.56795 16.6346 10.4807ZM15.405 8.19356C15.6371 8.59128 15.859 8.97964 16.06 9.36738C16.3401 8.73369 16.5824 8.08628 16.7857 7.42806C16.101 7.27429 15.4077 7.15484 14.7089 7.07024C14.9511 7.43741 15.1824 7.80582 15.4044 8.19356H15.405ZM5.99841 7.41996C6.20077 8.05642 6.44224 8.70286 6.72418 9.36862C6.92653 8.98089 7.14777 8.59315 7.36968 8.20541C7.59159 7.81767 7.82294 7.4399 8.06509 7.07149C7.33933 7.15938 6.65403 7.27845 5.99841 7.41996ZM12.6018 3.19347C12.4305 3.34246 12.2591 3.50142 12.0872 3.66101C12.7872 4.40873 13.4307 5.20022 14.0129 6.02983C15.0388 6.12136 16.0564 6.28094 17.0576 6.50733C17.098 6.35835 17.125 6.20874 17.1587 6.05975C17.6309 3.77259 17.3402 2.02215 16.5739 1.58517C16.4058 1.49792 16.215 1.45481 16.0222 1.46049C15.1986 1.45675 13.9346 2.04958 12.6018 3.1916V3.19347ZM6.1495 1.6101C5.43385 2.01779 5.15124 3.64854 5.57483 5.79669C5.62541 6.02547 5.676 6.25362 5.73603 6.49237C6.73859 6.2743 7.75574 6.11812 8.78074 6.02484C9.36501 5.19419 10.0119 4.40262 10.7166 3.65602C10.6059 3.5463 10.4845 3.44719 10.3739 3.34745C8.97095 2.12127 7.62194 1.47421 6.74104 1.47421C6.53401 1.46768 6.32913 1.51475 6.1495 1.6101ZM12.7428 5.94567C12.327 5.3897 11.8785 4.85528 11.3992 4.34485C10.9459 4.8317 10.492 5.36905 10.0502 5.94567C10.494 5.92573 10.9371 5.91575 11.3911 5.91575C11.845 5.91575 12.2996 5.92386 12.7434 5.94567H12.7428ZM9.37565 10.5206C9.3662 10.265 9.41141 10.0102 9.5087 9.77083C9.606 9.53142 9.75345 9.3121 9.94262 9.12546C10.1318 8.93882 10.359 8.78851 10.6111 8.68315C10.8632 8.57779 11.1354 8.51945 11.412 8.51148C11.97 8.52906 12.4978 8.75042 12.8795 9.12705C13.2612 9.50367 13.4658 10.0048 13.4483 10.5206C13.4663 11.0368 13.2619 11.5386 12.88 11.9156C12.4981 12.2927 11.9698 12.5142 11.4113 12.5316C11.1346 12.5237 10.8623 12.4653 10.61 12.3598C10.3578 12.2543 10.1306 12.1038 9.94144 11.917C9.7523 11.7301 9.60495 11.5106 9.50786 11.2709C9.41076 11.0313 9.36583 10.7763 9.37565 10.5206Z" fill="#667DFF"/>
</svg>